<svg class="svg-icon" style="width: 1em; height: 1em;vertical-align: middle;fill: currentColor;overflow: hidden;" viewBox="0 0 1024 1024" version="1.1" xmlns="http://www.w3.org/2000/svg"><path d="M806.4 195.2 240 195.2c-48 3.2-51.2 76.8-51.2 76.8l665.6 0C851.2 187.2 806.4 195.2 806.4 195.2z"  /><path d="M620.8 105.6 424 105.6c0 0-27.2 1.6-40 52.8l281.6 0C664 158.4 651.2 115.2 620.8 105.6z"  /><path d="M803.2 305.6 232 305.6l1.6 577.6c0 46.4 43.2 43.2 43.2 43.2l480 0c48-1.6 46.4-46.4 46.4-46.4L803.2 305.6zM408 825.6c0 0 1.6 22.4-27.2 22.4 0 0-20.8 1.6-27.2-22.4L353.6 403.2c0 0 1.6-22.4 27.2-22.4 0 0 22.4-3.2 27.2 22.4L408 825.6zM545.6 825.6c0 0 1.6 22.4-27.2 22.4 0 0-20.8 1.6-27.2-22.4L491.2 403.2c0 0 1.6-22.4 27.2-22.4 0 0 22.4-3.2 27.2 22.4L545.6 825.6zM683.2 825.6c0 0 1.6 22.4-27.2 22.4 0 0-20.8 1.6-27.2-22.4L628.8 403.2c0 0 1.6-22.4 27.2-22.4 0 0 22.4-3.2 27.2 22.4L683.2 825.6z"  /></svg>